HIERARCHY
ROOT hip
{
  OFFSET 0.0 0.0 0.0
  CHANNELS 6 Xposition Yposition Zposition Zrotation Yrotation Xrotation
  JOINT torso
  {
    OFFSET 0.0 0.0 0.0
    CHANNELS 3 Zrotation Xrotation Yrotation
    JOINT neck
    {
      OFFSET -20.11218299999996 327.95800799999995 66.30578600000035
      CHANNELS 3 Zrotation Xrotation Yrotation
      JOINT head
      {
        OFFSET 18.28939800000012 288.83178699999996 217.81652800000006
        CHANNELS 3 Zrotation Xrotation Yrotation
        End Site
        {
          OFFSET 0.0 0.0 0.0
        }
      }
    }
    JOINT left_collar
    {
      OFFSET -20.11218299999996 327.95800799999995 66.30578600000035
      CHANNELS 3 Zrotation Xrotation Yrotation
      JOINT left_upper_arm
      {
        OFFSET -127.08163400000001 -16.17407199999991 15.44799799999987
        CHANNELS 3 Zrotation Xrotation Yrotation
        JOINT left_forearm
        {
          OFFSET -234.267792 45.78796399999999 109.31286600000021
          CHANNELS 3 Zrotation Xrotation Yrotation
          JOINT left_hand
          {
            OFFSET -259.114014 -33.25433399999997 16.18847699999992
            CHANNELS 3 Zrotation Xrotation Yrotation
            End Site
            {
              OFFSET 0.0 0.0 0.0
            }
          }
        }
      }
    }
    JOINT right_collar
    {
      OFFSET -20.11218299999996 327.95800799999995 66.30578600000035
      CHANNELS 3 Zrotation Xrotation Yrotation
      JOINT right_upper_arm
      {
        OFFSET 164.513184 1.5733030000000099 4.892333999999892
        CHANNELS 3 Zrotation Xrotation Yrotation
        JOINT right_forearm
        {
          OFFSET 260.742027 48.718444999999974 144.35229500000014
          CHANNELS 3 Zrotation Xrotation Yrotation
          JOINT right_hand
          {
            OFFSET 287.85150899999996 -44.57171600000015 13.96813899999961
            CHANNELS 3 Zrotation Xrotation Yrotation
            End Site
            {
              OFFSET 0.0 0.0 0.0
            }
          }
        }
      }
    }
  }
}
MOTION
Frames: 17
Frame Time: 0.01
-266.5688087811103 270.6074641203654 1627.9858883045938 2.647347358113389 -3.173599501080297 -2.535834757890596 -0.32372100708190493 -0.039395677679447266 0.06312933598736387 -2.1922155105355174 -0.8974354915855063 1.7192146525830745 0.0 0.0 0.0 3.4273628981045183 -0.5264994999932251 6.003786045533895 13.381933897979755 0.6141622414568664 -66.14705082914544 -14.28815342408509 -0.8282005870460142 -21.6242883573451 0.0 0.0 0.0 -1.3370611249546605 0.03028564925376976 -4.481551202383875 -17.391546316487307 11.066187192049776 74.36154902694663 11.919557813953583 0.6146214332295388 23.43231793849508 0.0 0.0 0.0
-266.50919209954037 270.623065935412 1627.8485266495181 2.6666599850173496 -3.1461101489853185 -2.5621199837333903 -0.3310464352675012 -0.04897445579219871 0.06405159595377426 -2.194452897534939 -0.905127894565024 1.7214584741225987 0.0 0.0 0.0 3.4260586704158267 -0.5268218671717124 6.005274330573809 13.389030961012919 0.627291689585869 -66.13397621529678 -14.275262791121612 -0.8249314763786015 -21.615769703456856 0.0 0.0 0.0 -1.3344055053447896 0.03032690244711435 -4.47373606279721 -17.400897186052664 11.086299382913003 74.36069175981312 11.905409107204438 0.6182271966767604 23.431482719609683 0.0 0.0 0.0
-266.44815797725215 270.63752614366643 1627.7177735283046 2.6843608641660808 -3.120950994739214 -2.5876782109417458 -0.3360843378661172 -0.057910415327124425 0.06454919221182624 -2.1981440973922814 -0.9113299207307419 1.724701042756437 0.0 0.0 0.0 3.4259038297208178 -0.5271955482495461 6.007592248546267 13.394623068204208 0.6377293953789133 -66.12302408444397 -14.263192106357014 -0.8218722281520241 -21.607766701762877 0.0 0.0 0.0 -1.3333982123248678 0.030349784501754594 -4.467250823234266 -17.40929465511622 11.104444605433532 74.36158016528768 11.891730583712715 0.6216269579401875 23.42904707556235 0.0 0.0 0.0
-266.38562900927695 270.6508969867925 1627.5932112150356 2.7003803125251116 -3.098147236409624 -2.6124676559032314 -0.3387758333307767 -0.06611193672555264 0.06461495523918147 -2.2033678000292034 -0.9160760259081234 1.7290046462732374 0.0 0.0 0.0 3.4269746550239115 -0.5276250326255608 6.010801312137027 13.398812787316126 0.6456332028387753 -66.11423829941451 -14.251896189071882 -0.8190108008795627 -21.600331822050382 0.0 0.0 0.0 -1.3341031378757615 0.030353944166900362 -4.462132654251417 -17.41677297342169 11.120697256755635 74.36417916689301 11.878312728805135 0.6248759399059561 23.42504446322872 0.0 0.0 0.0
-266.32156574518683 270.66322985487835 1627.4743965974624 2.7146808479447113 -3.0777276778052283 -2.636448107277353 -0.3391043099826929 -0.07346769562150851 0.06425149115481564 -2.2101686423827647 -0.9194332585439986 1.7344079765233154 0.0 0.0 0.0 3.429314731959877 -0.528110540944173 6.014921109993551 13.40173078200535 0.651211089648109 -66.10761791788636 -14.241311412653292 -0.8163304900597683 -21.593508213315694 0.0 0.0 0.0 -1.3365546034133544 0.030339219123694097 -4.458405954387454 -17.423379612765515 11.135157937081066 74.3684200963608 11.864933118570033 0.6280340998456124 23.41953446798981 0.0 0.0 0.0
-266.2559678830706 270.6745796233929 1627.360863955096 2.72725772348238 -3.059720981911719 -2.6595826807096183 -0.337096698828548 -0.07985039354167144 0.06347125672759205 -2.2185549429117404 -0.9215026913088434 1.740924511738182 0.0 0.0 0.0 3.432933597320537 -0.5286483538532754 6.019930821041466 13.403533383818186 0.6547173130073534 -66.10311754638658 -14.23135541317627 -0.8138098641633716 -21.587329827904178 0.0 0.0 0.0 -1.3407554874607053 0.030305646680487495 -4.45607884613132 -17.42917532942238 11.147953596546353 74.37420070196993 11.851363084947115 0.6311643035402904 23.412601130145624 0.0 0.0 0.0
-266.1888755039541 270.68500780312496 1627.2521286219269 2.7381385551167474 -3.044149412056579 -2.681841335406059 -0.33282406683845434 -0.08512337484306098 0.0622963287923345 -2.2284978320464286 -0.9224199207054974 1.7485418986835182 0.0 0.0 0.0 3.437807010029367 -0.5292315184219835 6.025773915029076 13.404399309535414 0.6564470717258529 -66.10064903097329 -14.221927570688575 -0.8114228936678651 -21.581821868567236 0.0 0.0 0.0 -1.346675616365445 0.03025348411738673 -4.455138368197392 -17.434233844061513 11.159236956709131 74.38138640828387 11.83737498481457 0.6343303034787909 23.40435048001708 0.0 0.0 0.0
-266.12037012780075 270.69458451273516 1627.1476916379017 2.7473820182057107 -3.031020793964488 -2.703205473672018 -0.32640133061966026 -0.08914951515341218 0.06075785877608686 -2.2399316915898377 -0.9223544069086156 1.7572222520174006 0.0 0.0 0.0 3.4438787166566334 -0.5298508271540547 6.032365298594619 13.404525607098659 0.6567298141474864 -66.10008440503225 -14.212910341907769 -0.809139292936776 -21.577001515959203 0.0 0.0 0.0 -1.3542506578505544 0.030183236959258983 -4.455545152136817 -17.4386411046096 11.16918512848249 74.38981284827899 11.82274982826808 0.6375945929835829 23.394907383646686 0.0 0.0 0.0
-266.05057535420156 270.7033893413928 1627.0470454312888 2.7550756348626018 -3.0203195990270095 -2.723672829780744 -0.3179859150488247 -0.09180157938972945 0.05889521782806636 -2.252755760523228 -0.9215074674393771 1.7669032482374427 0.0 0.0 0.0 3.451063487208499 -0.5304959448544941 6.039599990760747 13.404122953828766 0.6559213874645353 -66.10125997130706 -14.204171491926418 -0.8069250871901275 -21.57287886066621 0.0 0.0 0.0 -1.363381752383896 0.030095692738147328 -4.457228462190619 -17.442494119048963 11.177997387718609 74.3992896148982 11.80728498498181 0.6410162196889732 23.384411854113687 0.0 0.0 0.0
-265.97965684360696 270.7115112109745 1626.94968048734 2.7613327155000156 -3.0119981170446826 -2.743261853066275 -0.3077752250294302 -0.0929731403671342 0.05675485319520811 -2.2668367349542633 -0.9201088087526539 1.7774998733728478 0.0 0.0 0.0 3.4592511405908555 -0.5311565546218137 6.047362357634213 13.403410460878252 0.6543952742747992 -66.10398136296669 -14.19556722131921 -0.8047434041608081 -21.569457928165534 0.0 0.0 0.0 -1.3739360816413573 0.02999195687627591 -4.460082442473183 -17.445899369693056 11.185892116180046 74.40960510273744 11.790801657586321 0.6446486505368058 23.373015020978986 0.0 0.0 0.0
-265.9078214005261 270.71904737463285 1626.855092861047 2.766288554465801 -3.005968651523512 -2.7620148975225853 -0.29600286113489077 -0.0925891290094708 0.05438889168659126 -2.282012185056017 -0.9184115772445133 1.7889066862867748 0.0 0.0 0.0 3.4683112550508692 -0.5318234051927175 6.055534997060705 13.402610157846906 0.6525331977027455 -66.10802940289683 -14.186946115022293 -0.8025554725597559 -21.566737655613114 0.0 0.0 0.0 -1.3857485076503213 0.02987348634803565 -4.4639642594847935 -17.448970847838343 11.193102969453541 74.42053223509818 11.77315179399186 0.6485377843003213 23.360874963184106 0.0 0.0 0.0
-265.8353149466371 270.7261017032666 1626.7627923030586 2.7700960103819923 -3.0020975496837656 -2.7799997119708046 -0.2829335846243764 -0.09061514606880192 0.05185354024740793 -2.2980946227929757 -0.9166860239904981 1.8010004755405267 0.0 0.0 0.0 3.4780982549405155 -0.5324891634012254 6.064006505906491 13.401941344543978 0.650715402807264 -66.11316655704941 -14.17815376139639 -0.8003217898971653 -21.56471266813522 0.0 0.0 0.0 -1.3986243289300968 0.02974211598084329 -4.468694590053079 -17.451827775373623 11.199874389764 74.43183480482888 11.754224113054875 0.6527202049817644 23.34815259723764 0.0 0.0 0.0
-265.7624192239061 270.73278241697926 1626.67231069995 2.772920623820788 -3.0002017035198514 -2.797308935213083 -0.2688571131369363 -0.08706478332663817 0.04920734533533615 -2.314876070408337 -0.9152119885195642 1.813643208015903 0.0 0.0 0.0 3.488456573015175 -0.5331490019570602 6.072677543860816 13.401615003833651 0.6493109404512977 -66.11914375548119 -14.1690378189044 -0.7980034042808072 -21.56337371805219 0.0 0.0 0.0 -1.4123431078807043 0.02960007181562113 -4.474060640574064 -17.45459210323126 11.206456631074664 74.44327410966144 11.733948944451619 0.6572217597088698 23.335007781261044 0.0 0.0 0.0
-265.6894471404817 270.73919941840694 1626.5832104840385 2.774935438941055 -3.0000479565693254 -2.814057505930022 -0.2540808981756305 -0.0820043595509621 0.046509381136614056 -2.3321329940676785 -0.9142704993797003 1.8266851854136568 0.0 0.0 0.0 3.499225610979282 -0.5338008801210868 6.081464802316851 13.401828466666174 0.6486682833968346 -66.12570733736734 -14.159453258609705 -0.7955632422790466 -21.562707694142198 0.0 0.0 0.0 -1.4266634456612732 0.02944996601748966 -4.479821638414785 -17.45738589010625 11.213100495088687 74.45461554553421 11.712301637464233 0.6620565278907538 23.321595757959333 0.0 0.0 0.0
-265.6167367540134 270.74546138065625 1626.4950926428562 2.7763157062267507 -3.001355641492479 -2.8303780823570657 -0.23892209764718272 -0.07555466027839139 0.04381744148758756 -2.349631477395678 -0.9141348519346034 1.8399683377465215 0.0 0.0 0.0 3.5102442667564526 -0.5344455018915782 6.09030268781671 13.402760504334394 0.6491065859354467 -66.13260587082465 -14.149267494873389 -0.7929674107663378 -21.562697173356938 0.0 0.0 0.0 -1.4413285306942454 0.02929476850535979 -4.485716534894732 -17.460328665008934 11.220051981957035 74.46563484321933 11.689304375376862 0.6672262246506504 23.30806402205853 0.0 0.0 0.0
-265.5446439689735 270.75167273496345 1626.4076039565869 2.77723365333399 -3.00380226402334 -2.8464147272846745 -0.22369901207907653 -0.06788947412372877 0.04118631168708144 -2.367132515023471 -0.9150615537987853 1.853329590063737 0.0 0.0 0.0 3.5213548628142526 -0.5350859630968016 6.099142734768435 13.40456699568703 0.6509078591765399 -66.13959661182069 -14.138365138351574 -0.7901864059427681 -21.563319562951264 0.0 0.0 0.0 -1.4560722649949944 0.029137751837194872 -4.491473508423177 -17.46353486438332 11.227547038965518 74.47612369354978 11.665026335516492 0.6727200528695219 23.29454966217281 0.0 0.0 0.0
-265.47353410411114 270.7579306929877 1626.320443115474 2.7778535165204317 -3.007032141959591 -2.8623152473304447 -0.20872229765102043 -0.05923093501350355 0.03866619335467909 -2.3843973080602043 -0.9172815317175804 1.8666042412492063 0.0 0.0 0.0 3.5324063816303948 -0.5357271248705275 6.1079509618430805 13.40737728539655 0.6543102844429382 -66.14645139834782 -14.126652157382388 -0.7871961756131394 -21.564545952766245 0.0 0.0 0.0 -1.470625768265817 0.028982407974309447 -4.496820750581837 -17.467111414391383 11.235806555061657 74.48589458885525 11.639582240802323 0.6785149895947791 23.28117719686786 0.0 0.0 0.0
